<mxfile host="app.diagrams.net" modified="2022-12-01T21:30:09.418Z" agent="5.0 (Windows NT 10.0; Win64; x64) AppleWebKit/537.36 (KHTML, like Gecko) Chrome/107.0.0.0 Safari/537.36" version="20.6.0" etag="cOizAPTBIzEWAARiqZTE" type="github">
  <diagram id="5ADxoYoFJ6WQMiYRAR7u" name="Page-1">
    <mxGraphModel dx="1662" dy="754" grid="1" gridSize="10" guides="1" tooltips="1" connect="1" arrows="1" fold="1" page="1" pageScale="1" pageWidth="1169" pageHeight="827" math="0" shadow="0">
      <root>
        <mxCell id="0" />
        <mxCell id="1" parent="0" />
        <mxCell id="W6Bv4ejxW_uESNOz4aTP-5" value="" style="edgeStyle=orthogonalEdgeStyle;rounded=0;orthogonalLoop=1;jettySize=auto;html=1;exitX=1;exitY=0.5;exitDx=0;exitDy=0;entryX=0;entryY=0.5;entryDx=0;entryDy=0;" edge="1" parent="1" source="W6Bv4ejxW_uESNOz4aTP-2" target="W6Bv4ejxW_uESNOz4aTP-4">
          <mxGeometry relative="1" as="geometry">
            <mxPoint x="90" y="180" as="sourcePoint" />
            <mxPoint x="90" y="240" as="targetPoint" />
          </mxGeometry>
        </mxCell>
        <mxCell id="W6Bv4ejxW_uESNOz4aTP-2" value="Start" style="ellipse;whiteSpace=wrap;html=1;aspect=fixed;" vertex="1" parent="1">
          <mxGeometry x="40" y="160" width="40" height="40" as="geometry" />
        </mxCell>
        <mxCell id="W6Bv4ejxW_uESNOz4aTP-7" value="" style="edgeStyle=orthogonalEdgeStyle;rounded=0;orthogonalLoop=1;jettySize=auto;html=1;entryX=0;entryY=0.5;entryDx=0;entryDy=0;exitX=1;exitY=0.5;exitDx=0;exitDy=0;" edge="1" parent="1" source="W6Bv4ejxW_uESNOz4aTP-4" target="W6Bv4ejxW_uESNOz4aTP-6">
          <mxGeometry relative="1" as="geometry" />
        </mxCell>
        <mxCell id="W6Bv4ejxW_uESNOz4aTP-4" value="Import libraries" style="whiteSpace=wrap;html=1;" vertex="1" parent="1">
          <mxGeometry x="120" y="150" width="120" height="60" as="geometry" />
        </mxCell>
        <mxCell id="W6Bv4ejxW_uESNOz4aTP-10" value="" style="edgeStyle=orthogonalEdgeStyle;rounded=0;orthogonalLoop=1;jettySize=auto;html=1;entryX=0.5;entryY=0;entryDx=0;entryDy=0;exitX=0.5;exitY=1;exitDx=0;exitDy=0;" edge="1" parent="1" source="W6Bv4ejxW_uESNOz4aTP-9" target="W6Bv4ejxW_uESNOz4aTP-6">
          <mxGeometry relative="1" as="geometry">
            <mxPoint x="470" y="260" as="sourcePoint" />
          </mxGeometry>
        </mxCell>
        <mxCell id="W6Bv4ejxW_uESNOz4aTP-12" value="" style="edgeStyle=orthogonalEdgeStyle;rounded=0;orthogonalLoop=1;jettySize=auto;html=1;" edge="1" parent="1" source="W6Bv4ejxW_uESNOz4aTP-6" target="W6Bv4ejxW_uESNOz4aTP-11">
          <mxGeometry relative="1" as="geometry" />
        </mxCell>
        <mxCell id="W6Bv4ejxW_uESNOz4aTP-6" value="Read&amp;nbsp;&lt;br&gt;csv" style="whiteSpace=wrap;html=1;" vertex="1" parent="1">
          <mxGeometry x="320" y="150" width="120" height="60" as="geometry" />
        </mxCell>
        <mxCell id="W6Bv4ejxW_uESNOz4aTP-9" value="dataset_part_1" style="shape=parallelogram;perimeter=parallelogramPerimeter;whiteSpace=wrap;html=1;fixedSize=1;" vertex="1" parent="1">
          <mxGeometry x="320" y="20" width="120" height="60" as="geometry" />
        </mxCell>
        <mxCell id="W6Bv4ejxW_uESNOz4aTP-14" value="" style="edgeStyle=orthogonalEdgeStyle;rounded=0;orthogonalLoop=1;jettySize=auto;html=1;" edge="1" parent="1" source="W6Bv4ejxW_uESNOz4aTP-11" target="W6Bv4ejxW_uESNOz4aTP-13">
          <mxGeometry relative="1" as="geometry" />
        </mxCell>
        <mxCell id="W6Bv4ejxW_uESNOz4aTP-11" value="Calculate percentage of null cells|" style="whiteSpace=wrap;html=1;" vertex="1" parent="1">
          <mxGeometry x="520" y="150" width="120" height="60" as="geometry" />
        </mxCell>
        <mxCell id="W6Bv4ejxW_uESNOz4aTP-16" value="" style="edgeStyle=orthogonalEdgeStyle;rounded=0;orthogonalLoop=1;jettySize=auto;html=1;" edge="1" parent="1" source="W6Bv4ejxW_uESNOz4aTP-13" target="W6Bv4ejxW_uESNOz4aTP-15">
          <mxGeometry relative="1" as="geometry" />
        </mxCell>
        <mxCell id="W6Bv4ejxW_uESNOz4aTP-13" value="Count launches per Launch-site" style="whiteSpace=wrap;html=1;" vertex="1" parent="1">
          <mxGeometry x="720" y="150" width="120" height="60" as="geometry" />
        </mxCell>
        <mxCell id="W6Bv4ejxW_uESNOz4aTP-18" style="edgeStyle=orthogonalEdgeStyle;rounded=0;orthogonalLoop=1;jettySize=auto;html=1;exitX=1;exitY=0.5;exitDx=0;exitDy=0;entryX=0;entryY=0.5;entryDx=0;entryDy=0;" edge="1" parent="1" source="W6Bv4ejxW_uESNOz4aTP-15" target="W6Bv4ejxW_uESNOz4aTP-17">
          <mxGeometry relative="1" as="geometry" />
        </mxCell>
        <mxCell id="W6Bv4ejxW_uESNOz4aTP-15" value="Count missions per orbit" style="whiteSpace=wrap;html=1;" vertex="1" parent="1">
          <mxGeometry x="920" y="150" width="120" height="60" as="geometry" />
        </mxCell>
        <mxCell id="W6Bv4ejxW_uESNOz4aTP-20" value="" style="edgeStyle=orthogonalEdgeStyle;rounded=0;orthogonalLoop=1;jettySize=auto;html=1;" edge="1" parent="1" source="W6Bv4ejxW_uESNOz4aTP-17" target="W6Bv4ejxW_uESNOz4aTP-19">
          <mxGeometry relative="1" as="geometry" />
        </mxCell>
        <mxCell id="W6Bv4ejxW_uESNOz4aTP-17" value="Count &lt;br&gt;Mission-Outcome&lt;br&gt;per orbit" style="rounded=0;whiteSpace=wrap;html=1;" vertex="1" parent="1">
          <mxGeometry x="120" y="280" width="120" height="60" as="geometry" />
        </mxCell>
        <mxCell id="W6Bv4ejxW_uESNOz4aTP-22" value="" style="edgeStyle=orthogonalEdgeStyle;rounded=0;orthogonalLoop=1;jettySize=auto;html=1;" edge="1" parent="1" source="W6Bv4ejxW_uESNOz4aTP-19" target="W6Bv4ejxW_uESNOz4aTP-21">
          <mxGeometry relative="1" as="geometry" />
        </mxCell>
        <mxCell id="W6Bv4ejxW_uESNOz4aTP-19" value="Count Missions per Mission-Outcome" style="whiteSpace=wrap;html=1;rounded=0;" vertex="1" parent="1">
          <mxGeometry x="320" y="280" width="120" height="60" as="geometry" />
        </mxCell>
        <mxCell id="W6Bv4ejxW_uESNOz4aTP-25" value="" style="edgeStyle=orthogonalEdgeStyle;rounded=0;orthogonalLoop=1;jettySize=auto;html=1;" edge="1" parent="1" source="W6Bv4ejxW_uESNOz4aTP-21" target="W6Bv4ejxW_uESNOz4aTP-24">
          <mxGeometry relative="1" as="geometry" />
        </mxCell>
        <mxCell id="W6Bv4ejxW_uESNOz4aTP-21" value="Enumerate the types of Outcomes" style="whiteSpace=wrap;html=1;rounded=0;" vertex="1" parent="1">
          <mxGeometry x="520" y="280" width="120" height="60" as="geometry" />
        </mxCell>
        <mxCell id="W6Bv4ejxW_uESNOz4aTP-27" value="" style="edgeStyle=orthogonalEdgeStyle;rounded=0;orthogonalLoop=1;jettySize=auto;html=1;" edge="1" parent="1" source="W6Bv4ejxW_uESNOz4aTP-24">
          <mxGeometry relative="1" as="geometry">
            <mxPoint x="920" y="310" as="targetPoint" />
          </mxGeometry>
        </mxCell>
        <mxCell id="W6Bv4ejxW_uESNOz4aTP-30" value="" style="edgeStyle=orthogonalEdgeStyle;rounded=0;orthogonalLoop=1;jettySize=auto;html=1;" edge="1" parent="1" source="W6Bv4ejxW_uESNOz4aTP-24" target="W6Bv4ejxW_uESNOz4aTP-29">
          <mxGeometry relative="1" as="geometry" />
        </mxCell>
        <mxCell id="W6Bv4ejxW_uESNOz4aTP-24" value="Select the unsuccessful outcomes" style="whiteSpace=wrap;html=1;rounded=0;" vertex="1" parent="1">
          <mxGeometry x="720" y="280" width="120" height="60" as="geometry" />
        </mxCell>
        <mxCell id="W6Bv4ejxW_uESNOz4aTP-35" value="" style="edgeStyle=orthogonalEdgeStyle;rounded=0;orthogonalLoop=1;jettySize=auto;html=1;" edge="1" parent="1" source="W6Bv4ejxW_uESNOz4aTP-28" target="W6Bv4ejxW_uESNOz4aTP-34">
          <mxGeometry relative="1" as="geometry" />
        </mxCell>
        <mxCell id="W6Bv4ejxW_uESNOz4aTP-51" style="edgeStyle=orthogonalEdgeStyle;rounded=0;orthogonalLoop=1;jettySize=auto;html=1;exitX=0.5;exitY=1;exitDx=0;exitDy=0;entryX=0.5;entryY=0;entryDx=0;entryDy=0;" edge="1" parent="1" source="W6Bv4ejxW_uESNOz4aTP-28" target="W6Bv4ejxW_uESNOz4aTP-46">
          <mxGeometry relative="1" as="geometry" />
        </mxCell>
        <mxCell id="W6Bv4ejxW_uESNOz4aTP-28" value="set &lt;br&gt;&#39;Class&#39; value to all missions?" style="rhombus;whiteSpace=wrap;html=1;" vertex="1" parent="1">
          <mxGeometry x="120" y="380" width="140" height="80" as="geometry" />
        </mxCell>
        <mxCell id="W6Bv4ejxW_uESNOz4aTP-33" style="edgeStyle=orthogonalEdgeStyle;rounded=0;orthogonalLoop=1;jettySize=auto;html=1;exitX=1;exitY=0.5;exitDx=0;exitDy=0;entryX=0;entryY=0.5;entryDx=0;entryDy=0;" edge="1" parent="1" source="W6Bv4ejxW_uESNOz4aTP-29" target="W6Bv4ejxW_uESNOz4aTP-28">
          <mxGeometry relative="1" as="geometry" />
        </mxCell>
        <mxCell id="W6Bv4ejxW_uESNOz4aTP-29" value="New Variable &#39;Class&#39;" style="whiteSpace=wrap;html=1;rounded=0;" vertex="1" parent="1">
          <mxGeometry x="920" y="280" width="120" height="60" as="geometry" />
        </mxCell>
        <mxCell id="W6Bv4ejxW_uESNOz4aTP-37" value="" style="edgeStyle=orthogonalEdgeStyle;rounded=0;orthogonalLoop=1;jettySize=auto;html=1;" edge="1" parent="1" source="W6Bv4ejxW_uESNOz4aTP-34" target="W6Bv4ejxW_uESNOz4aTP-36">
          <mxGeometry relative="1" as="geometry" />
        </mxCell>
        <mxCell id="W6Bv4ejxW_uESNOz4aTP-40" style="edgeStyle=orthogonalEdgeStyle;rounded=0;orthogonalLoop=1;jettySize=auto;html=1;exitX=0.5;exitY=1;exitDx=0;exitDy=0;entryX=0;entryY=0.5;entryDx=0;entryDy=0;" edge="1" parent="1" source="W6Bv4ejxW_uESNOz4aTP-34" target="W6Bv4ejxW_uESNOz4aTP-38">
          <mxGeometry relative="1" as="geometry" />
        </mxCell>
        <mxCell id="W6Bv4ejxW_uESNOz4aTP-34" value="mission successful?" style="rhombus;whiteSpace=wrap;html=1;" vertex="1" parent="1">
          <mxGeometry x="320" y="380" width="120" height="80" as="geometry" />
        </mxCell>
        <mxCell id="W6Bv4ejxW_uESNOz4aTP-41" style="edgeStyle=orthogonalEdgeStyle;rounded=0;orthogonalLoop=1;jettySize=auto;html=1;exitX=1;exitY=0.5;exitDx=0;exitDy=0;entryX=0;entryY=0.5;entryDx=0;entryDy=0;" edge="1" parent="1" source="W6Bv4ejxW_uESNOz4aTP-36" target="W6Bv4ejxW_uESNOz4aTP-28">
          <mxGeometry relative="1" as="geometry">
            <Array as="points">
              <mxPoint x="660" y="420" />
              <mxPoint x="660" y="360" />
              <mxPoint x="100" y="360" />
              <mxPoint x="100" y="420" />
            </Array>
          </mxGeometry>
        </mxCell>
        <mxCell id="W6Bv4ejxW_uESNOz4aTP-36" value="Assign&lt;br&gt;Class = 1" style="whiteSpace=wrap;html=1;" vertex="1" parent="1">
          <mxGeometry x="520" y="390" width="120" height="60" as="geometry" />
        </mxCell>
        <mxCell id="W6Bv4ejxW_uESNOz4aTP-44" style="edgeStyle=orthogonalEdgeStyle;rounded=0;orthogonalLoop=1;jettySize=auto;html=1;exitX=1;exitY=0.5;exitDx=0;exitDy=0;entryX=0;entryY=0.5;entryDx=0;entryDy=0;" edge="1" parent="1" source="W6Bv4ejxW_uESNOz4aTP-38" target="W6Bv4ejxW_uESNOz4aTP-28">
          <mxGeometry relative="1" as="geometry">
            <Array as="points">
              <mxPoint x="660" y="530" />
              <mxPoint x="660" y="360" />
              <mxPoint x="100" y="360" />
              <mxPoint x="100" y="420" />
            </Array>
          </mxGeometry>
        </mxCell>
        <mxCell id="W6Bv4ejxW_uESNOz4aTP-38" value="Assign&lt;br&gt;Class = 0" style="whiteSpace=wrap;html=1;" vertex="1" parent="1">
          <mxGeometry x="520" y="500" width="120" height="60" as="geometry" />
        </mxCell>
        <mxCell id="W6Bv4ejxW_uESNOz4aTP-53" style="edgeStyle=orthogonalEdgeStyle;rounded=0;orthogonalLoop=1;jettySize=auto;html=1;exitX=0.5;exitY=1;exitDx=0;exitDy=0;entryX=0.5;entryY=0;entryDx=0;entryDy=0;" edge="1" parent="1" source="W6Bv4ejxW_uESNOz4aTP-46" target="W6Bv4ejxW_uESNOz4aTP-52">
          <mxGeometry relative="1" as="geometry" />
        </mxCell>
        <mxCell id="W6Bv4ejxW_uESNOz4aTP-46" value="Count Landing class per orbit type" style="rounded=0;whiteSpace=wrap;html=1;" vertex="1" parent="1">
          <mxGeometry x="130" y="490" width="120" height="60" as="geometry" />
        </mxCell>
        <mxCell id="W6Bv4ejxW_uESNOz4aTP-47" value="Yes&lt;span style=&quot;color: rgba(0, 0, 0, 0); font-family: monospace; font-size: 0px; text-align: start;&quot;&gt;%3CmxGraphModel%3E%3Croot%3E%3CmxCell%20id%3D%220%22%2F%3E%3CmxCell%20id%3D%221%22%20parent%3D%220%22%2F%3E%3CmxCell%20id%3D%222%22%20value%3D%22Count%20%26lt%3Bbr%26gt%3BMission-Outcome%26lt%3Bbr%26gt%3Bper%20orbit%22%20style%3D%22rounded%3D0%3BwhiteSpace%3Dwrap%3Bhtml%3D1%3B%22%20vertex%3D%221%22%20parent%3D%221%22%3E%3CmxGeometry%20x%3D%22120%22%20y%3D%22280%22%20width%3D%22120%22%20height%3D%2260%22%20as%3D%22geometry%22%2F%3E%3C%2FmxCell%3E%3C%2Froot%3E%3C%2FmxGraphModel%3E&lt;/span&gt;&lt;span style=&quot;color: rgba(0, 0, 0, 0); font-family: monospace; font-size: 0px; text-align: start;&quot;&gt;%3CmxGraphModel%3E%3Croot%3E%3CmxCell%20id%3D%220%22%2F%3E%3CmxCell%20id%3D%221%22%20parent%3D%220%22%2F%3E%3CmxCell%20id%3D%222%22%20value%3D%22Count%20%26lt%3Bbr%26gt%3BMission-Outcome%26lt%3Bbr%26gt%3Bper%20orbit%22%20style%3D%22rounded%3D0%3BwhiteSpace%3Dwrap%3Bhtml%3D1%3B%22%20vertex%3D%221%22%20parent%3D%221%22%3E%3CmxGeometry%20x%3D%22120%22%20y%3D%22280%22%20width%3D%22120%22%20height%3D%2260%22%20as%3D%22geometry%22%2F%3E%3C%2FmxCell%3E%3C%2Froot%3E%3C%2FmxGraphModel%3E&lt;/span&gt;&lt;span style=&quot;color: rgba(0, 0, 0, 0); font-family: monospace; font-size: 0px; text-align: start;&quot;&gt;%3CmxGraphModel%3E%3Croot%3E%3CmxCell%20id%3D%220%22%2F%3E%3CmxCell%20id%3D%221%22%20parent%3D%220%22%2F%3E%3CmxCell%20id%3D%222%22%20value%3D%22Count%20%26lt%3Bbr%26gt%3BMission-Outcome%26lt%3Bbr%26gt%3Bper%20orbit%22%20style%3D%22rounded%3D0%3BwhiteSpace%3Dwrap%3Bhtml%3D1%3B%22%20vertex%3D%221%22%20parent%3D%221%22%3E%3CmxGeometry%20x%3D%22120%22%20y%3D%22280%22%20width%3D%22120%22%20height%3D%2260%22%20as%3D%22geometry%22%2F%3E%3C%2FmxCell%3E%3C%2Froot%3E%3C%2FmxGraphModel%3E&lt;/span&gt;" style="text;html=1;strokeColor=none;fillColor=none;align=center;verticalAlign=middle;whiteSpace=wrap;rounded=0;" vertex="1" parent="1">
          <mxGeometry x="190" y="460" width="60" height="30" as="geometry" />
        </mxCell>
        <mxCell id="W6Bv4ejxW_uESNOz4aTP-48" value="No" style="text;html=1;strokeColor=none;fillColor=none;align=center;verticalAlign=middle;whiteSpace=wrap;rounded=0;" vertex="1" parent="1">
          <mxGeometry x="250" y="390" width="60" height="30" as="geometry" />
        </mxCell>
        <mxCell id="W6Bv4ejxW_uESNOz4aTP-49" value="Yes&lt;span style=&quot;color: rgba(0, 0, 0, 0); font-family: monospace; font-size: 0px; text-align: start;&quot;&gt;%3CmxGraphModel%3E%3Croot%3E%3CmxCell%20id%3D%220%22%2F%3E%3CmxCell%20id%3D%221%22%20parent%3D%220%22%2F%3E%3CmxCell%20id%3D%222%22%20value%3D%22Count%20%26lt%3Bbr%26gt%3BMission-Outcome%26lt%3Bbr%26gt%3Bper%20orbit%22%20style%3D%22rounded%3D0%3BwhiteSpace%3Dwrap%3Bhtml%3D1%3B%22%20vertex%3D%221%22%20parent%3D%221%22%3E%3CmxGeometry%20x%3D%22120%22%20y%3D%22280%22%20width%3D%22120%22%20height%3D%2260%22%20as%3D%22geometry%22%2F%3E%3C%2FmxCell%3E%3C%2Froot%3E%3C%2FmxGraphModel%3E&lt;/span&gt;&lt;span style=&quot;color: rgba(0, 0, 0, 0); font-family: monospace; font-size: 0px; text-align: start;&quot;&gt;%3CmxGraphModel%3E%3Croot%3E%3CmxCell%20id%3D%220%22%2F%3E%3CmxCell%20id%3D%221%22%20parent%3D%220%22%2F%3E%3CmxCell%20id%3D%222%22%20value%3D%22Count%20%26lt%3Bbr%26gt%3BMission-Outcome%26lt%3Bbr%26gt%3Bper%20orbit%22%20style%3D%22rounded%3D0%3BwhiteSpace%3Dwrap%3Bhtml%3D1%3B%22%20vertex%3D%221%22%20parent%3D%221%22%3E%3CmxGeometry%20x%3D%22120%22%20y%3D%22280%22%20width%3D%22120%22%20height%3D%2260%22%20as%3D%22geometry%22%2F%3E%3C%2FmxCell%3E%3C%2Froot%3E%3C%2FmxGraphModel%3E&lt;/span&gt;&lt;span style=&quot;color: rgba(0, 0, 0, 0); font-family: monospace; font-size: 0px; text-align: start;&quot;&gt;%3CmxGraphModel%3E%3Croot%3E%3CmxCell%20id%3D%220%22%2F%3E%3CmxCell%20id%3D%221%22%20parent%3D%220%22%2F%3E%3CmxCell%20id%3D%222%22%20value%3D%22Count%20%26lt%3Bbr%26gt%3BMission-Outcome%26lt%3Bbr%26gt%3Bper%20orbit%22%20style%3D%22rounded%3D0%3BwhiteSpace%3Dwrap%3Bhtml%3D1%3B%22%20vertex%3D%221%22%20parent%3D%221%22%3E%3CmxGeometry%20x%3D%22120%22%20y%3D%22280%22%20width%3D%22120%22%20height%3D%2260%22%20as%3D%22geometry%22%2F%3E%3C%2FmxCell%3E%3C%2Froot%3E%3C%2FmxGraphModel%3E&lt;/span&gt;" style="text;html=1;strokeColor=none;fillColor=none;align=center;verticalAlign=middle;whiteSpace=wrap;rounded=0;" vertex="1" parent="1">
          <mxGeometry x="440" y="390" width="60" height="30" as="geometry" />
        </mxCell>
        <mxCell id="W6Bv4ejxW_uESNOz4aTP-50" value="No" style="text;html=1;strokeColor=none;fillColor=none;align=center;verticalAlign=middle;whiteSpace=wrap;rounded=0;" vertex="1" parent="1">
          <mxGeometry x="440" y="500" width="60" height="30" as="geometry" />
        </mxCell>
        <mxCell id="W6Bv4ejxW_uESNOz4aTP-55" value="" style="edgeStyle=orthogonalEdgeStyle;rounded=0;orthogonalLoop=1;jettySize=auto;html=1;" edge="1" parent="1" source="W6Bv4ejxW_uESNOz4aTP-52" target="W6Bv4ejxW_uESNOz4aTP-54">
          <mxGeometry relative="1" as="geometry" />
        </mxCell>
        <mxCell id="W6Bv4ejxW_uESNOz4aTP-52" value="Create&amp;nbsp;&lt;br&gt;csv file" style="shape=parallelogram;perimeter=parallelogramPerimeter;whiteSpace=wrap;html=1;fixedSize=1;" vertex="1" parent="1">
          <mxGeometry x="130" y="590" width="120" height="60" as="geometry" />
        </mxCell>
        <mxCell id="W6Bv4ejxW_uESNOz4aTP-54" value="End" style="ellipse;whiteSpace=wrap;html=1;" vertex="1" parent="1">
          <mxGeometry x="330" y="600" width="40" height="40" as="geometry" />
        </mxCell>
      </root>
    </mxGraphModel>
  </diagram>
</mxfile>
